<svg xmlns="http://www.w3.org/2000/svg" width="20.076" height="20.077" viewBox="0 0 20.076 20.077">
  <path id="insta-branco" d="M6.693,10.039a3.346,3.346,0,1,1,3.346,3.346,3.346,3.346,0,0,1-3.346-3.346m-1.809,0a5.155,5.155,0,1,0,5.155-5.155,5.155,5.155,0,0,0-5.155,5.155M14.193,4.68a1.2,1.2,0,1,0,1.2-1.2,1.205,1.205,0,0,0-1.2,1.2M5.983,18.21a5.545,5.545,0,0,1-1.864-.345,3.122,3.122,0,0,1-1.155-.751,3.1,3.1,0,0,1-.751-1.154A5.545,5.545,0,0,1,1.867,14.1c-.049-1.058-.058-1.376-.058-4.057s.011-3,.058-4.057a5.571,5.571,0,0,1,.345-1.864,3.122,3.122,0,0,1,.751-1.155,3.1,3.1,0,0,1,1.155-.751,5.545,5.545,0,0,1,1.864-.345c1.058-.049,1.376-.058,4.056-.058s3,.011,4.057.058a5.571,5.571,0,0,1,1.864.345,3.112,3.112,0,0,1,1.155.751,3.116,3.116,0,0,1,.751,1.155,5.545,5.545,0,0,1,.345,1.864c.049,1.059.058,1.376.058,4.057s-.01,3-.058,4.057a5.566,5.566,0,0,1-.345,1.864,3.324,3.324,0,0,1-1.906,1.9,5.545,5.545,0,0,1-1.864.345c-1.058.049-1.376.058-4.057.058s-3-.01-4.056-.058M5.9.061A7.363,7.363,0,0,0,3.463.527,4.926,4.926,0,0,0,1.685,1.685,4.912,4.912,0,0,0,.527,3.463,7.363,7.363,0,0,0,.061,5.9C.011,6.97,0,7.312,0,10.039s.011,3.068.061,4.139a7.363,7.363,0,0,0,.466,2.437,4.909,4.909,0,0,0,1.158,1.778A4.923,4.923,0,0,0,3.463,19.55a7.368,7.368,0,0,0,2.437.466c1.071.049,1.413.061,4.139.061s3.068-.011,4.139-.061a7.363,7.363,0,0,0,2.437-.466,5.133,5.133,0,0,0,2.936-2.936,7.343,7.343,0,0,0,.466-2.437c.049-1.071.06-1.413.06-4.139s-.011-3.068-.06-4.139a7.363,7.363,0,0,0-.466-2.437,4.937,4.937,0,0,0-1.158-1.778A4.923,4.923,0,0,0,16.615.527,7.351,7.351,0,0,0,14.178.061C13.108.012,12.766,0,10.039,0S6.971.011,5.9.061" fill="#f2f2f2"/>
</svg>
