<svg id="instagram" xmlns="http://www.w3.org/2000/svg" xmlns:xlink="http://www.w3.org/1999/xlink" width="26.419" height="26.42" viewBox="0 0 26.419 26.42">
  <defs>
    <linearGradient id="linear-gradient" x1="0.5" x2="0.5" y2="1" gradientUnits="objectBoundingBox">
      <stop id="color1" offset="0" stop-color="#188dff"/>
      <stop id="color2" offset="1" stop-color="#06f280"/>
    </linearGradient>
  </defs>
  <path id="instagram" d="M8.807,13.21a4.4,4.4,0,1,1,4.4,4.4,4.4,4.4,0,0,1-4.4-4.4m-2.381,0A6.783,6.783,0,1,0,13.21,6.427,6.783,6.783,0,0,0,6.427,13.21m12.25-7.052a1.586,1.586,0,1,0,1.586-1.585,1.586,1.586,0,0,0-1.586,1.585m-10.8,17.8a7.3,7.3,0,0,1-2.453-.455A4.109,4.109,0,0,1,3.9,22.52,4.083,4.083,0,0,1,2.912,21a7.3,7.3,0,0,1-.455-2.453c-.064-1.393-.077-1.811-.077-5.338s.014-3.945.077-5.338a7.331,7.331,0,0,1,.455-2.453A4.109,4.109,0,0,1,3.9,3.9,4.078,4.078,0,0,1,5.42,2.911a7.3,7.3,0,0,1,2.453-.455c1.393-.064,1.811-.077,5.337-.077s3.945.014,5.338.077A7.331,7.331,0,0,1,21,2.911a4.1,4.1,0,0,1,1.519.988,4.1,4.1,0,0,1,.988,1.519,7.3,7.3,0,0,1,.455,2.453c.064,1.394.077,1.811.077,5.338s-.013,3.945-.077,5.338A7.325,7.325,0,0,1,23.509,21,4.374,4.374,0,0,1,21,23.508a7.3,7.3,0,0,1-2.453.455c-1.393.064-1.811.077-5.338.077s-3.945-.013-5.337-.077M7.764.08A9.69,9.69,0,0,0,4.557.694a6.482,6.482,0,0,0-2.34,1.524A6.464,6.464,0,0,0,.694,4.557,9.69,9.69,0,0,0,.08,7.764C.015,9.172,0,9.623,0,13.21s.015,4.038.08,5.446a9.69,9.69,0,0,0,.614,3.206A6.459,6.459,0,0,0,2.217,24.2a6.478,6.478,0,0,0,2.34,1.524,9.7,9.7,0,0,0,3.207.614c1.41.064,1.859.08,5.446.08s4.038-.015,5.446-.08a9.69,9.69,0,0,0,3.206-.614,6.755,6.755,0,0,0,3.864-3.864,9.662,9.662,0,0,0,.614-3.207c.064-1.41.079-1.859.079-5.446S26.4,9.172,26.34,7.764a9.69,9.69,0,0,0-.614-3.207A6.5,6.5,0,0,0,24.2,2.217,6.478,6.478,0,0,0,21.864.694,9.674,9.674,0,0,0,18.657.08C17.249.016,16.8,0,13.211,0S9.173.015,7.764.08" fill="url(#linear-gradient)"/>
</svg>
