<svg xmlns="http://www.w3.org/2000/svg" width="31.353" height="37.625" viewBox="0 0 31.353 37.625">
  <path id="missao" d="M17.676,18.812a3.135,3.135,0,1,0-3.135-3.135A3.138,3.138,0,0,0,17.676,18.812Zm0-3.919a.784.784,0,1,1-.784.784A.784.784,0,0,1,17.676,14.893Zm8.238.71C25.878,10.087,23.469,5.3,18.509.344a1.176,1.176,0,0,0-1.663,0C11.884,5.305,9.474,10.087,9.438,15.6a7.437,7.437,0,0,0-4.3,6.736v1.568A2.746,2.746,0,0,0,7.879,26.65H11.97q.256.616.538,1.248l-1.053,3.508a1.174,1.174,0,0,0,1.127,1.514h.928A10.594,10.594,0,0,0,16.985,37.4a1.168,1.168,0,0,0,1.383,0,10.594,10.594,0,0,0,3.475-4.477h.928A1.179,1.179,0,0,0,23.9,31.408L22.845,27.9q.282-.633.538-1.248h4.092a2.746,2.746,0,0,0,2.743-2.743V22.341a7.437,7.437,0,0,0-4.3-6.738ZM14.162,30.569,14.632,29h6.089l.47,1.568Zm.356-3.919a41.685,41.685,0,0,1-1.5-3.919h9.323a40.833,40.833,0,0,1-1.5,3.919H14.518ZM17.676,2.865A24.564,24.564,0,0,1,21.84,8.622H13.513A24.564,24.564,0,0,1,17.676,2.865Zm-5.143,8.109H22.82a17.189,17.189,0,0,1,.169,9.406H12.364A17.174,17.174,0,0,1,12.533,10.974ZM7.879,24.3a.4.4,0,0,1-.392-.392V22.339A5.075,5.075,0,0,1,9.58,18.245,29.115,29.115,0,0,0,11.063,24.3Zm9.8,10.63a8.305,8.305,0,0,1-1.569-2.008h3.137a8.261,8.261,0,0,1-1.568,2.008Zm10.19-11.022a.4.4,0,0,1-.392.392H24.29a29.115,29.115,0,0,0,1.483-6.054,5.074,5.074,0,0,1,2.093,4.095Zm5.487-12.541a1.176,1.176,0,0,1-1.176,1.176h-.392v.392a1.176,1.176,0,0,1-2.351,0v-.392h-.392a1.176,1.176,0,1,1,0-2.351h.392V9.8a1.176,1.176,0,0,1,2.351,0v.392h.392A1.176,1.176,0,0,1,33.353,11.366ZM23.947,2.744a1.176,1.176,0,0,1,1.176-1.176h.392V1.176a1.176,1.176,0,1,1,2.351,0v.392h.392a1.176,1.176,0,0,1,0,2.351h-.392v.392a1.176,1.176,0,1,1-2.351,0V3.92h-.392a1.176,1.176,0,0,1-1.176-1.176ZM4.351,4.311A1.176,1.176,0,0,1,5.527,3.136h.392V2.744a1.176,1.176,0,1,1,2.351,0v.392h.392a1.176,1.176,0,0,1,0,2.351H8.271v.392a1.176,1.176,0,1,1-2.351,0V5.487H5.527A1.176,1.176,0,0,1,4.351,4.311Zm.392,11.365A1.176,1.176,0,0,1,3.568,14.5v-.392H3.176a1.176,1.176,0,1,1,0-2.351h.392v-.392a1.176,1.176,0,1,1,2.351,0v.392h.392a1.176,1.176,0,1,1,0,2.351H5.919V14.5A1.176,1.176,0,0,1,4.743,15.677Z" transform="translate(-2 0.001)" fill="#fff"/>
</svg>
