<svg xmlns="http://www.w3.org/2000/svg" width="36.569" height="36.552" viewBox="0 0 36.569 36.552">
  <path id="valores" d="M71.379,58.9V55.09a.905.905,0,0,1,1.81,0V58.9a.905.905,0,0,1-1.81,0Zm-3.779.707a.905.905,0,0,0,1.257-1.3l-2.736-2.641a.905.905,0,1,0-1.257,1.3Zm8.74.254a.9.9,0,0,0,.629-.254L79.7,56.967a.905.905,0,0,0-1.257-1.3l-2.736,2.641a.905.905,0,0,0,.629,1.556Zm14.015,9.946L84.6,76.633a.905.905,0,1,1-1.384-1.167l4.5-5.336H80.774l-5.74,15.039,5.758-6.828a.905.905,0,1,1,1.384,1.167l-9.2,10.908a.905.905,0,0,1-1.384,0L54.213,69.808A.905.905,0,0,1,54.2,68.66l2.186-2.743A.905.905,0,1,1,57.8,67.045l-1.015,1.274h7.105l3.075-5.461h-5.83L60.142,64.1a.905.905,0,0,1-1.416-1.128l1.264-1.586a.9.9,0,0,1,.708-.341H83.87a.9.9,0,0,1,.708.341l5.793,7.271a.905.905,0,0,1-.016,1.148Zm-6.921-6.95H77.6l3.075,5.461h7.105ZM65.966,68.319H78.6l-3.075-5.461H69.041Zm-9.114,1.81L69.535,85.168l-5.74-15.039Zm21.984,0h-13.1l6.552,17.164Z" transform="translate(-53.999 -54.185)" fill="#f2f2f2"/>
</svg>
