<svg xmlns="http://www.w3.org/2000/svg" width="34.769" height="34.825" viewBox="0 0 34.769 34.825">
  <g id="visao" transform="translate(0 0)">
    <path id="Caminho_8" data-name="Caminho 8" d="M36.3,16.433a20.426,20.426,0,0,0-33.785,0,2.87,2.87,0,0,0,0,3.214,20.26,20.26,0,0,0,16.166,8.92,7.087,7.087,0,0,0,1.267.006A20.263,20.263,0,0,0,36.3,19.647,2.866,2.866,0,0,0,36.3,16.433ZM20.431,26.038a10.132,10.132,0,0,1-2.17-.007,8.107,8.107,0,0,1-7.11-7.957,8.222,8.222,0,0,1,16.439,0A8.109,8.109,0,0,1,20.431,26.038ZM4.579,18.259a.389.389,0,0,1,0-.44,17.591,17.591,0,0,1,5.756-5.367,10.287,10.287,0,0,0-.069,11.132A17.587,17.587,0,0,1,4.579,18.259Zm29.656,0a17.591,17.591,0,0,1-5.8,5.394,10.3,10.3,0,0,0-.069-11.271,17.6,17.6,0,0,1,5.871,5.437A.388.388,0,0,1,34.235,18.259Z" transform="translate(-2.023 -0.662)" fill="#f2f2f2"/>
    <path id="Caminho_9" data-name="Caminho 9" d="M17.919,15.133a4.28,4.28,0,1,0,4.339,4.28A4.314,4.314,0,0,0,17.919,15.133Zm0,6.072a1.793,1.793,0,1,1,1.852-1.792A1.824,1.824,0,0,1,17.919,21.2Zm0-13.556a1.244,1.244,0,0,0,1.244-1.244V3.244a1.244,1.244,0,0,0-2.487,0V6.405A1.244,1.244,0,0,0,17.919,7.649Zm0,23.527a1.244,1.244,0,0,0-1.244,1.244v3.162a1.244,1.244,0,1,0,2.487,0V32.42A1.244,1.244,0,0,0,17.919,31.176Zm6.21-23.527a1.242,1.242,0,0,0,.979-.476L27.59,4.012a1.244,1.244,0,1,0-1.957-1.536L23.15,5.637a1.244,1.244,0,0,0,.978,2.012Zm-13.4-.476a1.244,1.244,0,1,0,1.957-1.536L10.2,2.476A1.244,1.244,0,0,0,8.247,4.012Zm0,24.478L8.247,34.813A1.244,1.244,0,0,0,10.2,36.349l2.483-3.162a1.244,1.244,0,1,0-1.957-1.536Zm14.377,0a1.244,1.244,0,1,0-1.957,1.536l2.483,3.162a1.244,1.244,0,1,0,1.957-1.536Z" transform="translate(-0.57 -2)" fill="#f2f2f2"/>
  </g>
</svg>
