<svg id="youtube" xmlns="http://www.w3.org/2000/svg" xmlns:xlink="http://www.w3.org/1999/xlink" width="35.474" height="24.423" viewBox="0 0 35.474 24.423">
  <defs>
    <linearGradient id="linear-gradient" x1="0.5" x2="0.5" y2="1" gradientUnits="objectBoundingBox">
      <stop id="color1" offset="0" stop-color="#fff"/>
      <stop id="color2" offset="1" stop-color="#fff"/>
    </linearGradient>
  </defs>
  <path id="Caminho_13" data-name="Caminho 13" d="M13.537-33.477a61.086,61.086,0,0,0-9.057.65A5.285,5.285,0,0,0,.927-29.81C.365-28.471.039-25.361.046-21.256c0,4.065.291,6.943.861,8.428A5.09,5.09,0,0,0,3.446-10.1c1.041.5,2.512.71,6.621.922,2.242.119,13.248.119,15.441,0,4.136-.219,5.545-.418,6.586-.922a5.09,5.09,0,0,0,2.54-2.732c1.083-2.825,1.2-12.427.2-16.286A5.152,5.152,0,0,0,31.483-32.7c-1.131-.391-3.8-.617-8.821-.756C20.574-33.517,15.986-33.524,13.537-33.477ZM24.779-31.4c3.817.166,5.587.365,6.364.729a3.223,3.223,0,0,1,1.4,1.339c.562,1.087.867,3.952.867,8.077,0,4.052-.312,6.956-.854,8.024a3.314,3.314,0,0,1-2.519,1.691c-.777.126-2.561.272-4.636.378-2.207.119-13.109.119-15.268,0-4.851-.259-5.635-.411-6.551-1.286a2.943,2.943,0,0,1-.9-1.611,45.2,45.2,0,0,1-.049-14.217A3.183,3.183,0,0,1,5.6-31a78.274,78.274,0,0,1,8.182-.491C15.3-31.535,23.19-31.468,24.779-31.4Z" transform="translate(-0.045 33.508)" fill="url(#linear-gradient)"/>
  <path id="Caminho_14" data-name="Caminho 14" d="M14.6-20.71v6.128l.409-.208c4.7-2.411,11.381-5.9,11.368-5.939s-11.465-6.009-11.687-6.084A55.121,55.121,0,0,0,14.6-20.71Zm5.219-1.281c1.326.688,2.387,1.269,2.36,1.294-.062.05-5.42,2.828-5.462,2.828-.021,0-.035-1.294-.035-2.872v-2.872l.368.189C17.241-23.323,18.49-22.673,19.815-21.991Z" transform="translate(-1.313 32.965)" fill="url(#linear-gradient)"/>
</svg>
